# xmcd
#
# Track frame offsets:
#	150
#	15706
#	35267
#	58232
#	83775
#	106809
#	129278
#	142073
#	159927
#	179516
#	205439
#
# Disc length: 3094 seconds
#
# Revision: 1
# Processed by: cddbd v1.5.1PL2 Copyright (c) Steve Scherf et al.
# Submitted via: audiograbber 1.81.03
#
DISCID=920c140b
DTITLE=Ricky`Paquette - Early For The Show
DYEAR=2005
DGENRE=Rock and Roll
TTITLE0=Caledonia
TTITLE1=Crossroads
TTITLE2=Schoolboy Blues
TTITLE3=Leave My Little Girl Alone
TTITLE4=I'm A Fool
TTITLE5=Red House
TTITLE6=Woodshed Blues
TTITLE7=Terra Plane Blues
TTITLE8=Statesboro Blues
TTITLE9=Feel Like A King
TTITLE10=Georgia On My Mind
EXTD=
EXTT0=
EXTT1=
EXTT2=
EXTT3=
EXTT4=
EXTT5=
EXTT6=
EXTT7=
EXTT8=
EXTT9=
EXTT10=
PLAYORDER=
